<svg id="Capa_2" data-name="Capa 2" xmlns="http://www.w3.org/2000/svg" viewBox="0 0 1261.01 99.63"><defs><style>.cls-1,.cls-2{fill:none;stroke:#9C5D5D;stroke-width:2px;}.cls-1{stroke-miterlimit:10;}.cls-2{stroke-linecap:round;stroke-linejoin:round;}</style></defs><title>linea</title><path class="cls-1" d="M25.24,50.61c30.58,6.84,52.61,4.38,67.33.67,7.36-1.86,16.59-4.46,29.33-6,7.85-1,22.9-18.37,41.61-13.59a72.59,72.59,0,0,1,12.39,4.26,59.26,59.26,0,0,1,17.67,11.72c4.87,4.77,12.25,22.67,10.33,27.61-1.78,4.61-21.64,1-30.67,7.67-4.86,3.57,8,.5,14.67,9,4.34,5.5,17.23,7.08,19,7,18.82-.8,32.22-13.54,35.33-16.67,19.06-19.1,20-32.85,3.67-49.62-11.14-11.44-35.73-13.58-46-3.33A18,18,0,0,0,195.72,36c-8.63,24,11.46,53.71,42.19,53.95,18.63,0.14,35.15-1.42,41.07-18.3,1.55-4.42,5.1-1,2.93-14.36-0.86-5.31-3.3-20.39-16.67-30.67-2.48-1.9-12-9-25.33-8.67-16.95.39-32.69,12.46-37.33,26.67-8,24.51,15.75,39.21,46,39.33,29.11,0.12,51.42-11.85,46.67-38s-34.8-36.26-40-38c-23.22-7.78-55.43-4.12-68.67,16-0.94,1.42-10.57,16.48-4.67,28,7.83,15.27,34.39,7.59,40,20,5.38,11.91-10.63,20.77-32.67,25-23.89,4.59-57.12-10.67-62.33-17.33-24.16-30.84,11.63-62.69,14.33-63.67,27.5-10,25,29.58,78.67,30.67,15.43,0.31,42.16,30.29,48.33,19.83,7.88-13.34,24.73-53.73,5-61-27.8-10.24-93.93,7.8-96,10.5-5.44,7.09-12.73,10.21-10.67,24.33,2.11,14.48,18.06,7.1,17,14-1.33,8.67-17.83.17-20.33,4.67-5.11,9.19,13.31,11.75,28,9.67,24.8-3.52,20.65-30.15,45.33-34,6.75-1.05,7.17,23.83,24.65,19.46,0.94-.24,12.69-2.62,13.35-3.13,22.79-17.59-35-49-78.33-49-16,0-38.58,14.87-46.5,33.5-15.9,37.39,102.78,19.76,85.5,54.5-5.07,10.19-53,4.61-54.33,5-18.5,5.48-38-22.94-45-40-15.24-37,37.17-48.8,80-39.67,24.66,5.25,47.94,38.61,42.67,72.67-4.29,27.69-71.27-15.32-94.33-9.5-47.57,12-57.77-35-45.67-44.5,17.17-13.5,50.06,10.9,63.67,12.33,41.73,4.41,18.54,45.3,57,49.17,20,2,49.06,3.61,54-13,6.54-22-27-27.45-20-34.83,5.17-5.47,24.76-.12,30,11.33,8.08,17.66-17.07,42.38-30,39-13.61-3.56-26.14-42.12-6.67-55.67,10.69-7.44,27.59-.9,38,2.67,82.48,28.3,191.55,8.09,191.33-1-0.09-3.93-20.83-10.13-34-2-13.86,8.56-26.67,15.82-16,32.67,5.83,9.2,25.32,12.36,35.67,13.33,26.9,2.53,51.45-13.91,57-44.33,0.72-4,9.27-21.91-13.33-36.1-15.32-9.62-37.76-5.09-50,3.67-7.57,5.42-20.8,8.48-17.33,17.44,4.89,12.64,36.35-6.81,57.33,12.33,13,11.83,19.4,26.41,12,35.67-9.59,12-45.06,6.62-54.67-12-10-19.4,9.15-37.06,34.67-44.67,17.38-5.18,42.63-.67,50.67,16.67,7.51,16.21-2.77,23.76-16.67,34-23.9,17.61-54.73-9.69-66.33,6-7.17,9.69-.29,8.89,10.67,16.33,13.39,9.09,37.25,8,41-4,4.35-14-20.73-10-38.67-25.33-31.38-26.84-57.05-33-52.67-41.33,6.5-12.33,24.08-2.55,40.67-1.67,25.35,1.36,51.92,9.33,50.67,20.33-0.79,7-12.15,14.58-34,25.67-18.94,9.61-55.52-21.49-52.33-9.67,3,11.13,36.5,28,56,30,20.93,2.15,44.82,2,55.33-14.33,8-12.35,9.3-28.3-1-40-17.11-19.45-58.09,1.26-59,10.67-0.74,7.62,23.64,20.75,47,18,17.19-2,21.5-9.25,40-14.67,19.94-5.84,35.93,10.74,54,14.67,22.67,4.93,143.53,1.89,149.33-4,6.51-6.61,14-18.56,10.67-23.33-4.69-6.77-32-.53-34.67,10.67-2.22,9.37,14.74,3.24,18,19,4.24,20.49-17,37.44-31.33,35.67-16.17-2-32.26-20.66-20.67-52C735.69,15.43,777.58-9,807.24,6.61c22.36,11.76,38.1,34.58,21.33,59-15.38,22.4-53.18,28.06-72,8-17.32-18.46-13.88-42.7,6-55,23.8-14.73,61.92,9.14,63.33,27.33,1.61,20.69-44.57-2.24-48,33.33-0.78,8.1,8.43,16.48,14,18.67,7.65,3,16.49,1.71,22-16,7.7-24.77-11.14-19.5-4-31.33,9-15,49.27-5.15,77.33.67,17.75,3.68,199.28,30.38,221.33-12,3-5.75,4.15-15.06,0-20.67-4.65-6.28-15.14-6.82-44.67-2-42.7,7-64,10.46-66.67,20.67-2.84,11.07,9.89,27.5,25.33,34.67,24.95,11.58,41.64-8,95.33-18,22.86-4.24,45.68-4.38,91.33-4.67,24.18-.15,44.67.55,60,1.33" transform="translate(-9.59 -0.78)"/><path class="cls-2" d="M14.4,41.11S21.94,50,25.74,51.17c0,0-15.12,8.33-15.15,9" transform="translate(-9.59 -0.78)"/><path class="cls-2" d="M14.4,41.11S21.94,50,25.74,51.17c0,0-15.12,8.33-15.15,9" transform="translate(-9.59 -0.78)"/><path class="cls-2" d="M1253.27,41.06S1265.8,50,1269.6,51.11c0,0-17.12,6.33-17.15,7" transform="translate(-9.59 -0.78)"/></svg>