<svg id="Capa_1" data-name="Capa 1" xmlns="http://www.w3.org/2000/svg" viewBox="0 0 433.06 414.48"><defs><style>.cls-1{fill:#a2e8b6;}.cls-2{fill:#9c5d5d;}.cls-3{fill:#e8a2a2;}</style></defs><title>logo</title><path class="cls-1" d="M225.8,6.94c99,4,164,81,175,136s-1.71,46,0,59c4,30.5,39.56,55.89,36,71-4,17-24.5,10.5-27,21-1.69,7.08,10,19,6,27s-24,8-24,8,23.89,4.82,23,14c-1.5,15.5-16,7-19,29-1.49,10.94,14,36-14,45s-99,8-104-37,66.64-95.07,59-185C324.8,53.61,225.8,6.94,225.8,6.94Z" transform="translate(-3.98 -6.94)"/><path class="cls-2" d="M168.13,9.27c-59.33.33-168.67,69-164,180.33,5.19,123.9,122,160,162.67,160,51.33,0,125.29-34.13,127.33-60.67,1-13-48,25.8-82,32.67-38,7.67-48.61-27.94-24.67-25.33,33.67,3.67,52-14.67,41-19.33-8-3.39-73.12.65-91,5.33-28,7.33-90.56-10.69-93.33-110.67C40.8,51.61,168.13,9.27,168.13,9.27Z" transform="translate(-3.98 -6.94)"/><path class="cls-3" d="M268.91,177.83c-2.42,0-4.84.09-7.25,0a3.82,3.82,0,0,0-4.12,2.46c-1.33,2.9-2.73,5.78-4.3,8.56a4.54,4.54,0,0,0,.61,5.8c3.07,3.61,6,7.37,9.08,10.94,1.3,1.49,1.23,2.55-.08,3.93-2.33,2.45-4.64,4.94-6.78,7.55-1.52,1.85-2.94,1.87-4.68.45-3.53-2.89-7.52-5.1-11.27-7.67-1.92-1.32-3.58-1.43-5.54,0-2.49,1.83-5.14,3.45-7.8,5a4.4,4.4,0,0,0-2.33,5.31c1,4.54,1.56,9.15,2.45,13.71,0.39,2-.09,3-2.14,3.57a97.1,97.1,0,0,0-9.34,3.15c-2.29.9-3.66,0.38-4.51-1.93-1.59-4.38-4-8.36-6.09-12.51a3.91,3.91,0,0,0-4.17-2.41c-3.28.2-6.57,0.4-9.86,0.41-2.43,0-3.67,1.17-4.44,3.35-1.62,4.56-3.47,9-5,13.6-0.62,1.79-1.52,2.16-3.24,1.73-3.29-.8-6.59-1.57-9.93-2.11-2-.33-2.82-1.13-2.67-3.23,0.34-4.83.42-9.67,0.76-14.5a4.1,4.1,0,0,0-2.73-4.53c-2.9-1.32-5.73-2.8-8.52-4.33a4,4,0,0,0-5,.5c-3.76,3.19-7.65,6.23-11.43,9.4-1.2,1-2.18,1.4-3.49.17-2.75-2.58-5.54-5.12-8.41-7.57-1.23-1.06-1.16-1.87-.29-3.15,2.7-4,5.19-8.16,7.9-12.16a4.6,4.6,0,0,0-.05-5.85c-1.93-2.77-3.74-5.64-5.49-8.52-1.17-1.92-2.88-1.65-4.61-1.37-4.77.76-9.55,1.5-14.31,2.37-1.81.33-2.61-.27-3.12-2q-1.51-5.15-3.38-10.18c-0.57-1.54-.14-2.24,1.24-2.92,4.5-2.23,8.92-4.62,13.42-6.86a4,4,0,0,0,2.49-4.39,79.41,79.41,0,0,1-.42-8.7c0-3.07-1.27-4.76-4.19-5.71-4.22-1.38-8.31-3.17-12.51-4.65-1.94-.68-2.49-1.66-1.95-3.69,0.82-3.08,1.43-6.22,1.95-9.37,0.34-2.06,1.11-3,3.4-2.78,4.72,0.39,9.47.39,14.2,0.72a4.27,4.27,0,0,0,4.75-2.86c1.3-2.91,2.78-5.75,4.3-8.56a4,4,0,0,0-.62-5c-3.13-3.69-6.11-7.51-9.27-11.16-1.28-1.48-1.28-2.52.09-3.92,2.42-2.5,4.75-5.1,7-7.77,1.26-1.52,2.33-1.54,3.91-.48,4,2.7,8.19,5.16,12.17,7.9,1.93,1.33,3.45,1.17,5.25-.11A82.69,82.69,0,0,1,156,90.54c2.34-1.3,2.93-3.07,2.46-5.56-0.86-4.56-1.52-9.16-2.4-13.72-0.36-1.88.11-2.84,2-3.4,3.43-1,6.81-2.19,10.17-3.43,1.62-.6,2.46-0.18,3.2,1.34,2.12,4.34,4.44,8.59,6.56,12.93a4.49,4.49,0,0,0,5.07,2.87,75.82,75.82,0,0,1,8.69-.49c2.67,0,4-1.33,4.88-3.67,1.63-4.45,3.4-8.85,5-13.3,0.5-1.37,1.14-2.11,2.74-1.76,3.87,0.86,7.75,1.68,11.65,2.42,1.68,0.32,1.54,1.43,1.48,2.62-0.25,4.73-.42,9.48-0.79,14.2-0.2,2.54.53,4.22,3,5.27a75.35,75.35,0,0,1,8,4.06c2.09,1.21,3.7.92,5.49-.62,3.67-3.14,7.53-6.06,11.22-9.18,1.4-1.18,2.4-1.13,3.71.11,2.59,2.47,5.27,4.85,8,7.16,1.43,1.21,1.35,2.26.37,3.71-2.7,4-5.2,8.15-7.93,12.14a4,4,0,0,0-.06,5.05c1.9,2.8,3.79,5.61,5.56,8.49a3.72,3.72,0,0,0,4.38,1.85c4.95-.9,9.94-1.55,14.89-2.44,1.57-.28,2.33.16,2.8,1.62,1.15,3.59,2.32,7.18,3.58,10.73,0.54,1.54,0,2.29-1.37,3-4.33,2.15-8.6,4.42-12.94,6.56a4.55,4.55,0,0,0-2.86,5.1c0.34,3.07.47,6.17,0.56,9.27a4.1,4.1,0,0,0,3.1,4.28c4.57,1.56,9,3.42,13.6,5.06,1.65,0.6,2.28,1.42,1.83,3.24-0.85,3.47-1.58,7-2.17,10.51-0.3,1.79-1.25,2.14-2.82,2-2.61-.19-5.22-0.27-7.83-0.39v-0.33Zm-39-25.17a38.38,38.38,0,1,0-38.51,38.27A38.45,38.45,0,0,0,229.94,152.66Z" transform="translate(-3.98 -6.94)"/></svg>