<svg id="Capa_1" data-name="Capa 1" xmlns="http://www.w3.org/2000/svg" viewBox="0 0 956.12 186.9"><defs><style>.cls-1{fill:#a2e8b6;}.cls-2{fill:#9c5d5d;}.cls-3{fill:#e8a2a2;}.cls-4{fill:#4e9c64;}</style></defs><title>logo_cpd</title><path class="cls-1" d="M105.73,10.47c44.64,1.8,74,36.52,78.91,61.32s-0.77,20.72,0,26.6c1.8,13.75,17.84,25.2,16.23,32-1.8,7.67-11,4.73-12.17,9.47-0.76,3.19,4.51,8.57,2.71,12.17s-10.82,3.61-10.82,3.61S191.36,157.84,191,162c-0.68,7-7.21,3.16-8.57,13.08-0.67,4.93,6.31,16.23-6.31,20.29s-44.64,3.61-46.9-16.68,30-42.87,26.6-83.42C150.37,31.51,105.73,10.47,105.73,10.47Z" transform="translate(-5.71 -10.47)"/><path class="cls-2" d="M79.73,11.52C53,11.67,3.68,42.63,5.78,92.83,8.12,148.7,60.79,165,79.13,165c23.15,0,56.5-15.39,57.42-27.36,0.45-5.86-21.63,11.63-37,14.73-17.13,3.46-21.92-12.6-11.12-11.42,15.18,1.65,23.45-6.61,18.49-8.72-3.61-1.53-33,.29-41,2.4-12.63,3.31-40.83-4.82-42.09-49.9C22.31,30.61,79.73,11.52,79.73,11.52Z" transform="translate(-5.71 -10.47)"/><path class="cls-3" d="M125.18,87.52c-1.09,0-2.18,0-3.27,0A1.72,1.72,0,0,0,120,88.62c-0.6,1.31-1.23,2.61-1.94,3.86a2,2,0,0,0,.28,2.62c1.38,1.63,2.69,3.32,4.09,4.93a1.11,1.11,0,0,1,0,1.77c-1.05,1.1-2.09,2.23-3.06,3.4a1.29,1.29,0,0,1-2.11.2c-1.59-1.3-3.39-2.3-5.08-3.46a1.91,1.91,0,0,0-2.5,0c-1.12.82-2.32,1.55-3.52,2.27a2,2,0,0,0-1.05,2.39c0.43,2,.7,4.13,1.1,6.18a1.16,1.16,0,0,1-1,1.61,43.78,43.78,0,0,0-4.21,1.42,1.32,1.32,0,0,1-2-.87,55,55,0,0,0-2.74-5.64,1.76,1.76,0,0,0-1.88-1.09c-1.48.09-3,.18-4.45,0.18a1.93,1.93,0,0,0-2,1.51C87.23,112,86.39,114,85.68,116a1,1,0,0,1-1.46.78c-1.48-.36-3-0.71-4.48-1a1.18,1.18,0,0,1-1.2-1.46c0.15-2.18.19-4.36,0.34-6.54a1.85,1.85,0,0,0-1.23-2c-1.31-.6-2.58-1.26-3.84-2a1.78,1.78,0,0,0-2.26.22c-1.69,1.44-3.45,2.81-5.15,4.24a1,1,0,0,1-1.57.08c-1.24-1.16-2.5-2.31-3.79-3.42a0.89,0.89,0,0,1-.13-1.42c1.22-1.81,2.34-3.68,3.56-5.48a2.07,2.07,0,0,0,0-2.64c-0.87-1.25-1.68-2.54-2.48-3.84-0.53-.87-1.3-0.74-2.08-0.62-2.15.34-4.31,0.68-6.45,1.07a1.05,1.05,0,0,1-1.41-.9q-0.68-2.32-1.52-4.59A0.89,0.89,0,0,1,51,85.27c2-1,4-2.09,6.05-3.09a1.78,1.78,0,0,0,1.12-2A35.81,35.81,0,0,1,58,76.27a2.38,2.38,0,0,0-1.89-2.58c-1.9-.62-3.75-1.43-5.64-2.1a1.17,1.17,0,0,1-.88-1.66c0.37-1.39.64-2.81,0.88-4.22A1.23,1.23,0,0,1,52,64.46c2.13,0.18,4.27.17,6.4,0.32a1.92,1.92,0,0,0,2.14-1.29c0.59-1.31,1.25-2.59,1.94-3.86a1.81,1.81,0,0,0-.28-2.27c-1.41-1.66-2.75-3.38-4.18-5a1.1,1.1,0,0,1,0-1.77c1.09-1.13,2.14-2.3,3.14-3.51A1.12,1.12,0,0,1,63,46.84c1.81,1.22,3.69,2.33,5.49,3.56a1.81,1.81,0,0,0,2.37,0,37.29,37.29,0,0,1,3.41-2.2,2.08,2.08,0,0,0,1.11-2.51C75,43.6,74.7,41.53,74.3,39.47a1.12,1.12,0,0,1,.91-1.54c1.55-.46,3.07-1,4.59-1.54a1,1,0,0,1,1.44.6c1,2,2,3.87,3,5.83a2,2,0,0,0,2.28,1.3,34.19,34.19,0,0,1,3.92-.22,2.14,2.14,0,0,0,2.2-1.65c0.73-2,1.53-4,2.27-6a1,1,0,0,1,1.24-.79c1.74,0.39,3.49.76,5.25,1.09,0.76,0.14.69,0.65,0.67,1.18-0.11,2.13-.19,4.27-0.36,6.4A2.07,2.07,0,0,0,103,46.51a34,34,0,0,1,3.62,1.83,1.9,1.9,0,0,0,2.48-.28c1.65-1.42,3.39-2.73,5.06-4.14a1.06,1.06,0,0,1,1.67.05c1.17,1.11,2.38,2.18,3.61,3.23a1.07,1.07,0,0,1,.17,1.67c-1.22,1.81-2.35,3.68-3.58,5.47a1.8,1.8,0,0,0,0,2.28c0.86,1.26,1.71,2.53,2.51,3.83a1.68,1.68,0,0,0,2,.83c2.23-.4,4.48-0.7,6.71-1.1a0.94,0.94,0,0,1,1.26.73c0.52,1.62,1,3.24,1.61,4.84a0.94,0.94,0,0,1-.62,1.33c-2,1-3.88,2-5.83,3a2.05,2.05,0,0,0-1.29,2.3c0.15,1.39.21,2.78,0.25,4.18a1.85,1.85,0,0,0,1.4,1.93c2.06,0.71,4.08,1.54,6.13,2.28A1.06,1.06,0,0,1,131,82.2c-0.38,1.57-.71,3.15-1,4.74a1,1,0,0,1-1.27.91c-1.17-.09-2.35-0.12-3.53-0.18V87.52ZM107.6,76.18A17.3,17.3,0,1,0,90.23,93.43,17.34,17.34,0,0,0,107.6,76.18Z" transform="translate(-5.71 -10.47)"/><path class="cls-2" d="M217.47,53.12C217.47,34.06,232,20,251.6,20c9.49,0,18,3.16,23.81,9.49L271,33.87c-5.3-5.39-11.81-7.72-19.25-7.72-15.72,0-27.53,11.53-27.53,27s11.81,27,27.53,27c7.44,0,14-2.33,19.25-7.81l4.37,4.37c-5.77,6.32-14.32,9.58-23.9,9.58C232,86.23,217.47,72.19,217.47,53.12Z" transform="translate(-5.71 -10.47)"/><path class="cls-2" d="M324.88,55.35V85.67h-6.32V78c-3,5-8.74,8.09-16.83,8.09-11.07,0-17.86-5.77-17.86-14.23,0-7.53,4.84-13.86,18.88-13.86h15.53v-3c0-8.37-4.74-12.93-13.86-12.93a24.92,24.92,0,0,0-16.28,5.77l-3-4.93c4.93-4.19,12.18-6.6,19.9-6.6C317.72,36.38,324.88,42.71,324.88,55.35ZM318.28,71V63H302.94c-9.49,0-12.56,3.72-12.56,8.74,0,5.67,4.56,9.21,12.37,9.21C310.19,80.93,315.68,77.4,318.28,71Z" transform="translate(-5.71 -10.47)"/><path class="cls-2" d="M367.48,36.38V42.8c-0.56,0-1.12-.09-1.58-0.09-10.23,0-16.46,6.51-16.46,18V85.67h-6.6V36.75h6.32v9.58C352.23,39.82,358.46,36.38,367.48,36.38Z" transform="translate(-5.71 -10.47)"/><path class="cls-2" d="M374,61.21c0-14.51,10.6-24.83,24.92-24.83s24.83,10.32,24.83,24.83-10.51,24.92-24.83,24.92S374,75.72,374,61.21Zm43.06,0c0-11.44-7.72-19.07-18.13-19.07s-18.23,7.63-18.23,19.07,7.81,19.07,18.23,19.07S417,72.65,417,61.21Z" transform="translate(-5.71 -10.47)"/><path class="cls-2" d="M437.23,16.67h6.6v69h-6.6v-69Z" transform="translate(-5.71 -10.47)"/><path class="cls-2" d="M460.76,21.32a4.77,4.77,0,0,1,4.84-4.65,4.69,4.69,0,0,1,4.84,4.56A4.84,4.84,0,0,1,460.76,21.32Zm1.49,15.44h6.6V85.67h-6.6V36.75Z" transform="translate(-5.71 -10.47)"/><path class="cls-2" d="M532.27,57.31V85.67h-6.6V58c0-10.32-5.39-15.62-14.69-15.62-10.51,0-17.11,6.51-17.11,17.67V85.67h-6.6V36.75h6.32v9c3.53-6,10.14-9.39,18.6-9.39C524.09,36.38,532.27,43.26,532.27,57.31Z" transform="translate(-5.71 -10.47)"/><path class="cls-2" d="M587.14,55.35V85.67h-6.32V78c-3,5-8.74,8.09-16.83,8.09-11.07,0-17.86-5.77-17.86-14.23,0-7.53,4.84-13.86,18.88-13.86h15.53v-3c0-8.37-4.74-12.93-13.86-12.93a24.92,24.92,0,0,0-16.28,5.77l-3-4.93c4.93-4.19,12.18-6.6,19.9-6.6C580,36.38,587.14,42.71,587.14,55.35ZM580.54,71V63H565.19c-9.49,0-12.56,3.72-12.56,8.74,0,5.67,4.56,9.21,12.37,9.21C572.45,80.93,577.94,77.4,580.54,71Z" transform="translate(-5.71 -10.47)"/><path class="cls-2" d="M681.82,42.89c0,13.86-10,22.23-26.6,22.23H637.73V85.67h-6.88V20.57h24.37C671.77,20.57,681.82,28.94,681.82,42.89Zm-6.88,0c0-10.42-6.88-16.37-19.9-16.37h-17.3V59.07H655C668.05,59.07,674.93,53.12,674.93,42.89Z" transform="translate(-5.71 -10.47)"/><path class="cls-2" d="M731.75,55.35V85.67h-6.32V78c-3,5-8.74,8.09-16.83,8.09-11.07,0-17.86-5.77-17.86-14.23,0-7.53,4.84-13.86,18.88-13.86h15.53v-3c0-8.37-4.74-12.93-13.86-12.93A24.92,24.92,0,0,0,695,47.91L692,43c4.93-4.19,12.18-6.6,19.9-6.6C724.59,36.38,731.75,42.71,731.75,55.35ZM725.15,71V63H709.81c-9.49,0-12.56,3.72-12.56,8.74,0,5.67,4.56,9.21,12.37,9.21C717.06,80.93,722.55,77.4,725.15,71Z" transform="translate(-5.71 -10.47)"/><path class="cls-2" d="M794.72,57.31V85.67h-6.6V58c0-10.32-5.39-15.62-14.69-15.62-10.51,0-17.11,6.51-17.11,17.67V85.67h-6.6V36.75H756v9c3.53-6,10.14-9.39,18.6-9.39C786.53,36.38,794.72,43.26,794.72,57.31Z" transform="translate(-5.71 -10.47)"/><path class="cls-2" d="M807.92,61.21c0-14.51,10.6-24.83,24.92-24.83s24.83,10.32,24.83,24.83-10.51,24.92-24.83,24.92S807.92,75.72,807.92,61.21Zm43.06,0c0-11.44-7.72-19.07-18.13-19.07s-18.23,7.63-18.23,19.07,7.81,19.07,18.23,19.07S851,72.65,851,61.21Z" transform="translate(-5.71 -10.47)"/><path class="cls-2" d="M904.83,80.19v5.49H865V81.3l30.78-39H865.58V36.75h38.69v4.37L873.49,80.19h31.34Z" transform="translate(-5.71 -10.47)"/><path class="cls-2" d="M912.08,61.21c0-14.51,10.6-24.83,24.92-24.83s24.83,10.32,24.83,24.83S951.33,86.14,937,86.14,912.08,75.72,912.08,61.21Zm43.06,0c0-11.44-7.72-19.07-18.13-19.07s-18.23,7.63-18.23,19.07S926.59,80.28,937,80.28,955.14,72.65,955.14,61.21Z" transform="translate(-5.71 -10.47)"/><path class="cls-4" d="M333.39,134c0,13.41-9.72,21.51-25.74,21.51H290.74v19.89h-6.66v-63h23.58C323.68,112.42,333.39,120.52,333.39,134Zm-6.66,0c0-10.08-6.66-15.84-19.26-15.84H290.74v31.5h16.74C320.08,149.68,326.74,143.92,326.74,134Z" transform="translate(-5.71 -10.47)"/><path class="cls-4" d="M340.78,170l2.88-5c3.78,3,10.17,5.31,16.83,5.31,9,0,12.69-3.06,12.69-7.74,0-12.33-30.69-2.61-30.69-21.33,0-7.74,6.66-13.5,18.72-13.5,6.12,0,12.78,1.71,16.74,4.41l-2.79,5.13a24.26,24.26,0,0,0-13.95-4c-8.55,0-12.33,3.33-12.33,7.83,0,12.78,30.69,3.15,30.69,21.33,0,8.19-7.2,13.5-19.53,13.5C352.21,175.87,344.65,173.35,340.78,170Z" transform="translate(-5.71 -10.47)"/><path class="cls-4" d="M389.92,113.14a4.61,4.61,0,0,1,4.68-4.5,4.54,4.54,0,0,1,4.68,4.41A4.68,4.68,0,0,1,389.92,113.14Zm1.44,14.94h6.39v47.34h-6.39V128.08Z" transform="translate(-5.71 -10.47)"/><path class="cls-4" d="M410.8,151.75c0-14.13,10.26-24,24.39-24,8,0,14.76,3.15,18.54,9.36L449,140.32a16.09,16.09,0,0,0-13.77-7c-10.35,0-17.91,7.38-17.91,18.45s7.56,18.45,17.91,18.45c5.49,0,10.53-2.16,13.77-6.93l4.77,3.24c-3.78,6.12-10.53,9.36-18.54,9.36C421.06,175.87,410.8,165.88,410.8,151.75Z" transform="translate(-5.71 -10.47)"/><path class="cls-4" d="M460.66,151.75c0-14,10.26-24,24.12-24s24,10,24,24-10.17,24.12-24,24.12S460.66,165.79,460.66,151.75Zm41.67,0c0-11.07-7.47-18.45-17.55-18.45s-17.64,7.38-17.64,18.45,7.56,18.45,17.64,18.45S502.32,162.82,502.32,151.75Zm-11.16-42.12h8.55l-14.58,11.16h-6.3Z" transform="translate(-5.71 -10.47)"/><path class="cls-4" d="M521.86,108.64h6.39v66.78h-6.39V108.64Z" transform="translate(-5.71 -10.47)"/><path class="cls-4" d="M541.29,151.75c0-14,10.26-24,24.12-24s24,10,24,24-10.17,24.12-24,24.12S541.29,165.79,541.29,151.75Zm41.67,0c0-11.07-7.47-18.45-17.55-18.45s-17.64,7.38-17.64,18.45,7.56,18.45,17.64,18.45S583,162.82,583,151.75Z" transform="translate(-5.71 -10.47)"/><path class="cls-4" d="M646.32,128.08v41.58c0,16.29-8,23.67-23.67,23.67-8.64,0-17.1-2.61-22-7.29l3.24-4.86c4.5,4,11.34,6.48,18.63,6.48,12,0,17.46-5.49,17.46-17.19v-6c-4,6-10.71,9.18-18.45,9.18-13.5,0-23.76-9.45-23.76-23s10.26-22.86,23.76-22.86c7.92,0,14.76,3.24,18.72,9.45v-9.09h6.12Zm-6.21,22.5c0-10.26-7.56-17.28-18-17.28s-17.91,7-17.91,17.28,7.47,17.37,17.91,17.37S640.11,160.84,640.11,150.58Z" transform="translate(-5.71 -10.47)"/><path class="cls-4" d="M700,146.08v29.34h-6.12V168c-2.88,4.86-8.46,7.83-16.29,7.83-10.71,0-17.28-5.58-17.28-13.77,0-7.29,4.68-13.41,18.27-13.41h15v-2.88c0-8.1-4.59-12.51-13.41-12.51a24.12,24.12,0,0,0-15.75,5.58l-2.88-4.77c4.77-4.05,11.79-6.39,19.26-6.39C693,127.72,700,133.84,700,146.08Zm-6.39,15.12v-7.74H678.72c-9.18,0-12.15,3.6-12.15,8.46,0,5.49,4.41,8.91,12,8.91C685.74,170.83,691.05,167.41,693.57,161.2Z" transform="translate(-5.71 -10.47)"/></svg>