<?xml version="1.0" encoding="utf-8"?>
<!-- Generator: Adobe Illustrator 16.0.3, SVG Export Plug-In . SVG Version: 6.00 Build 0)  -->
<!DOCTYPE svg PUBLIC "-//W3C//DTD SVG 1.1//EN" "http://www.w3.org/Graphics/SVG/1.1/DTD/svg11.dtd">
<svg version="1.1" id="Capa_1" xmlns="http://www.w3.org/2000/svg" xmlns:xlink="http://www.w3.org/1999/xlink" x="0px" y="0px"
	 width="500px" height="500px" viewBox="0 0 500 500" enable-background="new 0 0 500 500" xml:space="preserve">
<g>
	<path fill="#A2E8B6" d="M498.75,252.85C498.75,115.469,387.381,4.1,250,4.1S1.25,115.469,1.25,252.85
		c0,83.854,41.495,158.015,105.068,203.076c4.085-14.247,7.133-31.43,7.133-51.074c0-59.817-62.381-43.581-62.381-204.233
		c0-93.998,88.017-155.581,184.579-155.581c10.255,0,18.162,0,18.162,0c113.436,4.329,147.352,88.157,157.232,137.572
		c9.885,49.417-1.536,41.294,0,53.009c3.597,27.402,35.538,50.215,32.345,63.79c-3.593,15.275-22.011,9.436-24.259,18.872
		c-1.514,6.36,8.986,17.068,5.393,24.255c-3.594,7.19-21.563,7.19-21.563,7.19s21.46,4.335,20.664,12.576
		c-1.349,13.93-14.375,6.292-17.071,26.057c-1.34,9.834,12.578,32.344-12.577,40.432c-13.593,4.367-31.854,11.951-59.166,0.417
		c-10.504-4.437-26.564,48.578-31.712,66.693C414.963,471.574,498.75,372.005,498.75,252.85z"/>
	<path fill="#A2E8B6" stroke="#9C5D5D" stroke-width="3" stroke-miterlimit="10" d="M354.816,307.53
		c5.568-10.417,8.662-21.951,8.662-34.087c0-46.392-45.219-84-101-84c-55.781,0-101,37.608-101,84c0,46.393,45.219,84,101,84
		c42.085,0,70.988-24.247,70.988-24.247c13.488,4.752,54.012,5.732,54.012,5.732C365.979,331.913,354.816,307.53,354.816,307.53z"/>
	<path fill="#A2E8B6" stroke="#9C5D5D" stroke-width="3" stroke-miterlimit="10" d="M201.483,113.849c-55.781,0-101,37.608-101,84
		c0,12.135,3.094,23.67,8.662,34.087c0,0-11.162,24.382-32.662,31.398c0,0,40.523-0.98,54.012-5.732
		c0,0,28.903,24.247,70.988,24.247c55.781,0,101-37.607,101-84C302.482,151.457,257.264,113.849,201.483,113.849z"/>
</g>
</svg>
