<?xml version="1.0" encoding="utf-8"?>
<!-- Generator: Adobe Illustrator 16.0.3, SVG Export Plug-In . SVG Version: 6.00 Build 0)  -->
<!DOCTYPE svg PUBLIC "-//W3C//DTD SVG 1.1//EN" "http://www.w3.org/Graphics/SVG/1.1/DTD/svg11.dtd">
<svg version="1.1" id="Capa_1" xmlns="http://www.w3.org/2000/svg" xmlns:xlink="http://www.w3.org/1999/xlink" x="0px" y="0px"
	 width="500px" height="500px" viewBox="0 0 500 500" enable-background="new 0 0 500 500" xml:space="preserve">
<g>
	<path fill="#9C5D5D" d="M498.75,252.85C498.75,115.469,387.381,4.1,250,4.1S1.25,115.469,1.25,252.85
		c0,83.854,41.495,158.015,105.068,203.076c4.085-14.247,7.133-31.43,7.133-51.074c0-59.817-62.381-43.581-62.381-204.233
		c0-93.998,88.017-155.581,184.579-155.581c10.255,0,18.162,0,18.162,0c113.436,4.329,147.352,88.157,157.232,137.572
		c9.885,49.417-1.536,41.294,0,53.009c3.597,27.402,35.538,50.215,32.345,63.79c-3.593,15.275-22.011,9.436-24.259,18.872
		c-1.514,6.36,8.986,17.068,5.393,24.255c-3.594,7.19-21.563,7.19-21.563,7.19s21.46,4.335,20.664,12.576
		c-1.349,13.93-14.375,6.292-17.071,26.057c-1.34,9.834,12.578,32.344-12.577,40.432c-13.593,4.367-31.854,11.951-59.166,0.417
		c-10.504-4.437-26.564,48.578-31.712,66.693C414.963,471.574,498.75,372.005,498.75,252.85z"/>
	<path fill="none" stroke="#9C5D5D" stroke-width="5" stroke-miterlimit="10" d="M242.508,276.831c0,0-42.638-81.627-9.137-81.627
		s88.32,34.983,60.91,52.475c-27.409,17.491-103.548,67.051-106.593,26.237c-3.045-40.814,6.091-128.271,48.728-110.78
		c42.638,17.492,106.594,113.695,67.002,137.018s-188.823-43.729-146.186-125.356c42.638-81.627,143.14-43.729,161.413-14.576
		c18.273,29.152-6.091,201.153-94.411,172c-88.32-29.152-182.732-154.508-91.366-189.492c91.366-34.983,143.14-26.237,170.55,32.068
		s60.911,37.898,42.638,102.034s-97.457-49.56-140.095-43.729c-42.637,5.831-130.958,90.374-79.184,90.374
		S279.054,113.577,251.644,90.254c-27.409-23.322-158.367,69.966-124.866,116.61c33.501,46.645,261.915,78.712,222.323,125.356
		c-39.592,46.645-170.549-253.627-76.138-230.305c94.411,23.322,70.047,306.102-45.683,265.289S84.14,230.187,129.823,238.933
		c45.683,8.746,130.958,160.34,182.732,128.271c51.774-32.067,112.685-346.916-158.368-160.339"/>
</g>
</svg>
