<?xml version="1.0" encoding="utf-8"?>
<!-- Generator: Adobe Illustrator 16.0.3, SVG Export Plug-In . SVG Version: 6.00 Build 0)  -->
<!DOCTYPE svg PUBLIC "-//W3C//DTD SVG 1.1//EN" "http://www.w3.org/Graphics/SVG/1.1/DTD/svg11.dtd">
<svg version="1.1" id="Capa_1" xmlns="http://www.w3.org/2000/svg" xmlns:xlink="http://www.w3.org/1999/xlink" x="0px" y="0px"
	 width="500px" height="500px" viewBox="0 0 500 500" enable-background="new 0 0 500 500" xml:space="preserve">
<g>
	<path fill="#E8A2A2" d="M498.75,252.85C498.75,115.469,387.381,4.1,250,4.1S1.25,115.469,1.25,252.85
		c0,83.854,41.495,158.015,105.068,203.076c4.085-14.247,7.133-31.43,7.133-51.074c0-59.817-62.381-43.581-62.381-204.233
		c0-93.998,88.017-155.581,184.579-155.581c10.255,0,18.162,0,18.162,0c113.436,4.329,147.352,88.157,157.232,137.572
		c9.885,49.417-1.536,41.294,0,53.009c3.597,27.402,35.538,50.215,32.345,63.79c-3.593,15.275-22.011,9.436-24.259,18.872
		c-1.514,6.36,8.986,17.068,5.393,24.255c-3.594,7.19-21.563,7.19-21.563,7.19s21.46,4.335,20.664,12.576
		c-1.349,13.93-14.375,6.292-17.071,26.057c-1.34,9.834,12.578,32.344-12.577,40.432c-13.593,4.367-31.854,11.951-59.166,0.417
		c-10.504-4.437-26.564,48.578-31.712,66.693C414.963,471.574,498.75,372.005,498.75,252.85z"/>
	
		<path fill="#E8A2A2" stroke="#9C5D5D" stroke-width="5" stroke-linecap="round" stroke-linejoin="round" stroke-miterlimit="10" d="
		M316.751,69.685l-93.283,59.204l20.362,32.084c0,0,7.099-13.98,17.23-20.411s23.397-4.19,33.043,11.007
		c9.645,15.198-5.714,32.052-5.714,32.052s-21.513,13.686-25.799,6.931l20.129,31.607l31.873-20.229
		c-5.929,6.872,6.646,25.984,6.646,25.984s16.855,15.359,32.052,5.714c15.198-9.646,17.438-22.911,11.008-33.042
		c-6.43-10.132-20.615-16.97-20.615-16.97l32.28-20.635L316.751,69.685z"/>
	
		<path fill="#E8A2A2" stroke="#9C5D5D" stroke-width="5" stroke-linecap="round" stroke-linejoin="round" stroke-miterlimit="10" d="
		M201.624,365.455c-11.859,1.837-23.119-5.526-25.874-23.314c-2.755-17.787,18.067-27.084,18.067-27.084s25.191-3.93,26.416,3.976
		l-5.793-37.021l-37.305,5.778c8.183-3.924,4.312-26.472,4.312-26.472s-9.297-20.823-27.085-18.067
		c-17.788,2.756-25.151,14.016-23.314,25.873c1.837,11.859,12.099,23.804,12.099,23.804l-37.842,5.987l16.914,109.198
		l109.183-16.911l-5.816-37.553C225.583,353.648,213.482,363.618,201.624,365.455z"/>
	
		<path fill="#E8A2A2" stroke="#9C5D5D" stroke-width="5" stroke-linecap="round" stroke-linejoin="round" stroke-miterlimit="10" d="
		M227.327,198.618c-11.858,1.836-23.803,12.099-23.803,12.099l-5.988-37.842L88.338,189.788l16.911,109.183l37.552-5.816
		c0,0-9.97-12.102-11.807-23.96c-1.836-11.858,5.527-23.118,23.314-25.874c17.788-2.755,27.085,18.068,27.085,18.068
		s3.929,25.19-3.977,26.415l37.022-5.793l-5.778-37.306c3.924,8.184,26.471,4.312,26.471,4.312s20.822-9.297,18.067-27.084
		C250.445,204.144,239.185,196.781,227.327,198.618z"/>
	
		<path fill="#E8A2A2" stroke="#9C5D5D" stroke-width="5" stroke-linecap="round" stroke-linejoin="round" stroke-miterlimit="10" d="
		M286.078,270.867c0,0,9.97,12.101,11.807,23.959c1.836,11.858-5.527,23.118-23.314,25.874
		c-17.788,2.755-27.085-18.067-27.085-18.067s-3.93-25.191,3.977-26.416l-37.022,5.794l5.778,37.305
		c-3.924-8.184-26.472-4.312-26.472-4.312s-20.822,9.297-18.067,27.085c2.755,17.788,14.015,25.151,25.873,23.314
		c11.859-1.837,23.804-12.099,23.804-12.099l5.988,37.842l109.197-16.914L323.63,265.051L286.078,270.867z"/>
</g>
</svg>
