<svg id="Capa_2" data-name="Capa 2" xmlns="http://www.w3.org/2000/svg" viewBox="0 0 451.11 424.27"><defs><style>.cls-1{fill:#b5511c;}.cls-1,.cls-4,.cls-5{stroke:#421e14;}.cls-1,.cls-10,.cls-2,.cls-4,.cls-5,.cls-6,.cls-7,.cls-8,.cls-9{stroke-miterlimit:10;}.cls-2{fill:#f59f8b;}.cls-2,.cls-6,.cls-7,.cls-8{stroke:#d68a7b;}.cls-3{fill:#392720;}.cls-4,.cls-7{fill:none;}.cls-5{fill:#723825;}.cls-6{fill:#d68a7b;}.cls-8{fill:#fff;}.cls-9{fill:#9cd9dd;stroke:#9cd9dd;}.cls-10{fill:#d5d1cd;stroke:#636362;}</style></defs><title>persona-pc</title><path class="cls-1" d="M27,500s-13.56-22.63,8.47-50.59c0,0,69.49-159.06,93.22-174S199.88,250,246.49,250,366,268.9,384.63,296s71.19,145.76,71.19,145.76,29.66,21.53,11,58.22H27Z" transform="translate(-22.37 -76.23)"/><path class="cls-2" d="M217.68,120.59s-11.86-.92-11,9.25,1,38.2,1,38.2-7.43-2.3-7.43,8.78c0,7.63,6.08,19.49,10.75,20.34,0,0-1.43,36.14,35,36.14,43.07,0,39.55-37.29,39.55-37.29s13.56-2.54,11.86-19.07-16.1-7.2-16.1-7.2,5.08-50-25.42-49.15S217.68,120.59,217.68,120.59Z" transform="translate(-22.37 -76.23)"/><path class="cls-3" d="M225.5,156c6,0,11-1,11-7s-4,0-11,0-16.5,9-15,11.5S219.5,156,225.5,156Z" transform="translate(-22.37 -76.23)"/><path class="cls-4" d="M223.42,167.5s9.08-7.5,13.08,2.5" transform="translate(-22.37 -76.23)"/><line class="cls-4" x1="201.05" y1="100.71" x2="211.63" y2="100.71"/><ellipse class="cls-3" cx="206.92" cy="97.13" rx="2.7" ry="3.36"/><path class="cls-5" d="M281.24,169.75s6.33-4.4,11.55-1.82c0,0,0-57.17,0-59.92S284,89.25,267.25,89.25s-50.75,2.5-50.75,2.5-13-7.75-13-11.25-3-5.5-6.25-1.75-6.5,9.5-6,15c0,0-15,1.8-9.25,19.5,3.25,10,13,14,13,14s-1.11,23.27,8.69,41.14c0,0,2.54-1.53,3.92-.34l-1-40.2a128.42,128.42,0,0,0,27.34-3.6c13-3.44,45.5-9.36,47.25-3.68s-0.65,27.91-.65,27.91S283,167.24,281.24,169.75Z" transform="translate(-22.37 -76.23)"/><line class="cls-4" x1="172.63" y1="51.02" x2="184.29" y2="51.61"/><path class="cls-3" d="M253,120.25s7.7-.64,12.12,2,13.09,9,15.49,26.26c0,0,1.57-22.58,1.11-25.25s-0.9-5.43-8.71-5S253,120.25,253,120.25Z" transform="translate(-22.37 -76.23)"/><path class="cls-3" d="M265.34,156c-6,0-11-1-11-7s4,0,11,0,16.5,9,15,11.5S271.34,156,265.34,156Z" transform="translate(-22.37 -76.23)"/><path class="cls-4" d="M271.42,167.5s-9.08-7.5-13.08,2.5" transform="translate(-22.37 -76.23)"/><line class="cls-4" x1="249.05" y1="100.71" x2="238.47" y2="100.71"/><ellipse class="cls-3" cx="243.17" cy="97.13" rx="2.7" ry="3.36"/><path class="cls-6" d="M244.25,163.75s1.5,13,0,17.25,0.67,7.25,4.59,6.75a47.91,47.91,0,0,0,7.16-1.5s1.42,3.75-7.16,3.75-8.34-5-7.34-11S244.25,163.75,244.25,163.75Z" transform="translate(-22.37 -76.23)"/><path class="cls-7" d="M229.3,195.75s12.22,6.75,36.84,0" transform="translate(-22.37 -76.23)"/><path class="cls-8" d="M232.73,197.06c4.72,1.41,14.31,3,28.83-.18l1.29-.3s0.41,17.66-13.84,17.66S232.73,197.06,232.73,197.06Z" transform="translate(-22.37 -76.23)"/><path class="cls-4" d="M191.25,93.75s14.43-2.75,19.09,9.75" transform="translate(-22.37 -76.23)"/><path class="cls-9" d="M191.73,254.63s5.52,34.62,58.27,34.62,58.54-31.18,58.54-31.18S266.71,243,191.73,254.63Z" transform="translate(-22.37 -76.23)"/><path class="cls-2" d="M218,220.76V263s5.25,9.25,34.25,9.25S280.5,265,280.5,265l0.89-49.42s-7.53,17.73-35.46,17.73C226.59,233.31,218,220.76,218,220.76Z" transform="translate(-22.37 -76.23)"/><path class="cls-4" d="M130.33,296s-27.08,13.93-33.08,25.11" transform="translate(-22.37 -76.23)"/><path class="cls-4" d="M88.33,376.67s-30.7,23.63-38.23,40.2" transform="translate(-22.37 -76.23)"/><path class="cls-4" d="M138,410.67S46.62,434.48,35.47,449.41" transform="translate(-22.37 -76.23)"/><path class="cls-4" d="M108,391.67s11.37,9.63,14.85,23.15" transform="translate(-22.37 -76.23)"/><path class="cls-4" d="M122.85,479.33S110,499.33,103,500" transform="translate(-22.37 -76.23)"/><path class="cls-4" d="M365.67,296s27.08,13.93,33.08,25.11" transform="translate(-22.37 -76.23)"/><path class="cls-4" d="M406.67,376.67s30.7,23.63,38.23,40.2" transform="translate(-22.37 -76.23)"/><path class="cls-4" d="M355,404.67s91.38,23.81,102.53,38.74" transform="translate(-22.37 -76.23)"/><path class="cls-4" d="M385,385.67s-11.37,9.63-14.85,23.15" transform="translate(-22.37 -76.23)"/><path class="cls-4" d="M372.15,479.33S385,499.33,392,500" transform="translate(-22.37 -76.23)"/><rect class="cls-10" x="117.96" y="410.77" width="216.67" height="13" rx="6.5" ry="6.5"/><path class="cls-10" d="M142.92,488.33S137,487.33,136,471s-8-112.33-8.33-121.33,4-8.67,10.33-8.67,218.67,0.33,222.67,0,4.67,3.33,5,8S357,479,357,483.33s-6.5,3.67-6.5,3.67H149.33Z" transform="translate(-22.37 -76.23)"/><path class="cls-6" d="M218,243.75s41.43-5.31,42.84-12.28c0,0-16.73,4.22-27.79,0S218,220.76,218,220.76v23Z" transform="translate(-22.37 -76.23)"/></svg>