<svg id="Capa_1" data-name="Capa 1" xmlns="http://www.w3.org/2000/svg" viewBox="0 0 1276.99 797.47"><defs><style>.cls-1{fill:#97e8dc;}.cls-2{fill:#5d9c92;}.cls-3{fill:#751c32;}.cls-4{fill:#1b193f;}.cls-5{fill:#fda68b;}.cls-6{fill:#29235c;}.cls-7{fill:#e9effd;}.cls-8{fill:#cedaf2;}.cls-9{fill:#2c1935;}.cls-10{fill:#da806a;}.cls-11,.cls-14,.cls-15{fill:none;}.cls-11{stroke:#da806a;stroke-linecap:round;stroke-width:3px;}.cls-11,.cls-12,.cls-14,.cls-15{stroke-miterlimit:10;}.cls-12{fill:#fff;stroke:#29235c;stroke-width:2px;}.cls-13{fill:#ff00f9;}.cls-14{stroke:#a629ff;}.cls-15{stroke:red;}</style></defs><title>personaAcostada</title><path class="cls-1" d="M110.36,509.72v-176c0-39.5,30-119.5,106-119.5h908c76,0,106,80,106,119.5v176h-1120Z" transform="translate(-28.75 -12.75)"/><circle class="cls-2" cx="636.33" cy="326.05" r="21.29"/><circle class="cls-2" cx="496.33" cy="326.05" r="21.29"/><circle class="cls-2" cx="356.33" cy="326.05" r="21.29"/><circle class="cls-2" cx="916.33" cy="326.05" r="21.29"/><circle class="cls-2" cx="776.33" cy="326.05" r="21.29"/><circle class="cls-2" cx="1056.33" cy="326.05" r="21.29"/><circle class="cls-2" cx="216.33" cy="326.05" r="21.29"/><circle class="cls-2" cx="636.33" cy="416.05" r="21.29"/><circle class="cls-2" cx="496.33" cy="416.05" r="21.29"/><circle class="cls-2" cx="356.33" cy="416.05" r="21.29"/><circle class="cls-2" cx="916.33" cy="416.05" r="21.29"/><circle class="cls-2" cx="776.33" cy="416.05" r="21.29"/><circle class="cls-2" cx="1056.33" cy="416.05" r="21.29"/><circle class="cls-2" cx="216.33" cy="416.05" r="21.29"/><path class="cls-3" d="M106.36,671.22v122c0,12,18,17,39,17s38-3,38-19,9-60,38-60h895c29,0,38,44,38,60s17,19,38,19,39-5,39-17v-122h-1125Z" transform="translate(-28.75 -12.75)"/><path class="cls-2" d="M233.75,498.54c-13.09-69.72-53-68.72-100.23-68.72-57.86,0-104.77,57.08-104.77,127.49,0,109.49,46.91,127.49,104.77,127.49H1232.24c40.59,0,73.5-42,73.5-93.75s-32.91-93.75-73.5-93.75Z" transform="translate(-28.75 -12.75)"/><path class="cls-1" d="M1304.25,572.16a119.29,119.29,0,0,1,1.49,18.89,117.39,117.39,0,0,1-3.77,29.7l-1265.54.86c-5-16.8-7.69-37.89-7.69-64.31,0-70.41,46.91-127.49,104.77-127.49,47.22,0,87.14-1,100.23,68.72,0,0-9,57.27,21,66.27S1304.25,572.16,1304.25,572.16Z" transform="translate(-28.75 -12.75)"/><circle class="cls-2" cx="103.05" cy="516.56" r="46.5"/><path class="cls-4" d="M945,445.55s-52-118-59.33-134-21-54-47-54c-56.33,0-173,132.67-176.33,133.33s-50.67,20-50.67,20l194,8,26.67-35.33,20,41.33Z" transform="translate(-28.75 -12.75)"/><path class="cls-5" d="M1090.86,501.47s42.25-2.25,45.75-2.75,12.75,5.25,18,5.5,15.25-3.25,15.25-3.25l8.5-35.75-9.25-14.75s-13.75,4.75-17,5.5-39.25-2.5-46-2.75S1090.86,501.47,1090.86,501.47Z" transform="translate(-28.75 -12.75)"/><path class="cls-6" d="M605,408.22s201.83,4.5,283.33,16.5,218.5,27.5,218.5,27.5,0.5,48-27,70.5c0,0-121.5,12.5-180.5-4.5,0,0-287,31.5-314,27.5C585.36,545.72,615.2,482.72,605,408.22Z" transform="translate(-28.75 -12.75)"/><path class="cls-4" d="M1183.11,523.22s-33.5-12-33.75-20.5c0,0,20.25,1.75,21.75-19s-3-33.25-3-33.25,16-6.25,22.5-16,35.59-67.52,56.75-54.5c9.75,6,10.75,8.75,8.75,14.5-1.32,3.81-55.08,121.67-56.75,125.25C1197.61,523.47,1195.11,529.22,1183.11,523.22Z" transform="translate(-28.75 -12.75)"/><path class="cls-7" d="M1183.11,523.22c12,6,14.5.25,16.25-3.5,1.67-3.58,55.43-121.44,56.75-125.25,2-5.75,1-8.5-8.75-14.5a232.48,232.48,0,0,1-17,49.5C1218.11,455,1183.11,523.22,1183.11,523.22Z" transform="translate(-28.75 -12.75)"/><path class="cls-8" d="M585.36,545.72s-174-11.5-206.5-19-69-73.5-69-73.5l171.5-56.5,30,1.5-14,105.5,98,15.5Z" transform="translate(-28.75 -12.75)"/><path class="cls-5" d="M282.86,385.22l-23.5,7.5-20-10s8.5-17.5,7-24-9.5-7.5-12.5-9-4-5.5-6.25-7.25-12.5-4-16.25-3c0,0,2.25-17-4.25-16.75-5,.19-32.5,5.75-32.5,5.75s-13.25-14.25-31-10.25l-18.25,50,16.5,60L185.61,432s19.25,6.5,24,11,11.25,7.25,13.25,22.25l23.5-6.75,38.75-69Z" transform="translate(-28.75 -12.75)"/><path class="cls-9" d="M130.61,367.47s14.25-17,14.25-40.75-12.5-27.5-12.5-27.5,1.25,12.5-4,15c0,0-5.5-15.75-13.5-12.75,0,0,1.75,15-2.75,16.25,0,0-8.5-8.5-10.75-7.5V322s-38.5,14.25-34.5,61.25c0,0-10.25,10.5-19.25-.75,0,0-.5,15.75,17.5,17a30.07,30.07,0,0,0-1.5,20s5.5-10.75,8.25-10.5c0,0,18.25,41.5,69,37.5s51.25-19.75,41-28.75c0,0-10,7-16.25,6.75s-17.5-4.5-17.5-12.25,6.5-18.5,17-16.75,12.5,0.5,9-2.75-10.25-6-13-8.5-9-11.25-15.5-12S130.61,367.47,130.61,367.47Z" transform="translate(-28.75 -12.75)"/><path class="cls-9" d="M159.36,339.72c-1,14.25.27,19.76,2.25,19.5,3.75-.5,3-9.75,3-16.25s4.25-14.25,2.25-16-4.25-2.5-5-.25A50.93,50.93,0,0,0,159.36,339.72Z" transform="translate(-28.75 -12.75)"/><path class="cls-9" d="M176.86,337.47c-0.89-1.33-5,1.75-5,6.5s2.75,11.5,4.25,10.5-2.5-5.25-1.75-9.25S177.86,339,176.86,337.47Z" transform="translate(-28.75 -12.75)"/><ellipse class="cls-9" cx="179.11" cy="344.6" rx="2.87" ry="6.25" transform="translate(-235.33 377.32) rotate(-69.26)"/><path class="cls-10" d="M207.11,322.72s4.75,0.5,4.75,8.25,0.5,13.75-3,13.75-5-1.5-4-4.25S207.11,322.72,207.11,322.72Z" transform="translate(-28.75 -12.75)"/><path class="cls-10" d="M224.86,341.22s3,1,4.25,2.75c0,0-4.5,3-4.5,10.75,0,0,4.25,1.5,3.5,3s-2.25,1.5-6,.5-5.5-3.5-2-4.75C220.11,353.47,220.61,345.72,224.86,341.22Z" transform="translate(-28.75 -12.75)"/><path class="cls-11" d="M185.36,408.22s-6.45,2.46-10,5-4.25-4-3.75-5.75-4.5-4.5-8.25-3.75-10,1.5-9.75,7,7.5,6,7.5,6" transform="translate(-28.75 -12.75)"/><path class="cls-10" d="M239.36,382.72s-16.25,26.5-26.75,27.75-17.5.5-17.75,2-6,2.75-7.25,2.75-5.75,2.5-5.75,2.5L185.61,432s7,2.75,8.5,3c0,0-.75-9.5,5-12s19.75-1.75,28.75-8,20-20,20-28.25Z" transform="translate(-28.75 -12.75)"/><path class="cls-7" d="M605,408.22s-87.67-10-142.17-20-157.5-24.5-180-3c0,0-21.5,65-60,80,0,0,11.5,85,155,123,0,0,26-23.5,11-77.5l-65-49,59.5,26,61-67,60.5-21.5s-7.5,20.5-10,23.5-20,82-23,87c0,0,71,11,86,11s37.5-1.5,37.5-1.5S613.2,460.72,605,408.22Z" transform="translate(-28.75 -12.75)"/><path class="cls-5" d="M388.86,510.72l57.5-106c-17.5-11-18-18.5-17-24s18-4.5,18-4.5c7.5-14,13.5-18.5,30-15s30,27,31.5,31.5-10.5,13-16.5,16.5-8,9.5-10,15.5-40.5,115-47.5,125.5-21,28-28,27-20-3-20-3,6.13-12,6.65-33S388.86,510.72,388.86,510.72Z" transform="translate(-28.75 -12.75)"/><ellipse class="cls-12" cx="315.91" cy="213.45" rx="55.37" ry="16.1" transform="translate(-50.48 23.61) rotate(-6.37)"/><ellipse class="cls-12" cx="238.41" cy="252.55" rx="31.13" ry="12" transform="translate(-55.3 15.26) rotate(-6.37)"/><ellipse class="cls-12" cx="393.04" cy="158.43" rx="72.5" ry="21.09" transform="translate(-43.9 31.83) rotate(-6.37)"/><path class="cls-13" d="M622.16,54.55" transform="translate(-28.75 -12.75)"/><path class="cls-12" d="M625,51.55s-141.42,4.17-149.5,61c-5.16,36.3,73.08,83.67,219.77,61.64,0,0,73.28,4.48,103-7.25,0,0,161.77,14.63,163.18-54.49,1-48.74-109.81-56.73-109.81-56.73s4.59-24.78-12.08-33.15c-39.54-19.86-73.54,0-73.54,0S747.6,9.38,706.36,23.8C706.36,23.8,653.62.22,625,51.55Z" transform="translate(-28.75 -12.75)"/><path class="cls-14" d="M711.79,117.21c49.95-25.09,87.07-15.19,90-28s-30-39.95-64-36c-16,1.86-39.21,11.43-44,30-6.34,24.59,23.31,50.71,48,60,19.3,7.27,53.1,10.85,72-10,27.37-30.19,7.57-90.88-14-96C783.3,33.3,756.5,59.77,757.37,82.82c0.78,20.61,23.23,26.73,21,40.5-3.56,22-67.46,46.57-94.5,19.5-14.52-14.54-18-43.52-6-55.5,14.94-15,46.63,3.9,54-7.5,6.85-10.61-10.59-42.42-33-46.5-35.43-6.45-75.24,57.92-64.5,73.5,8.17,11.84,37.83-15.75,84-6,51.31,10.84,68.61,56.34,102,48,15.34-3.83,27.64-17.43,25.5-22.5-7.06-16.72-175.64,48.59-183,31.5C659.73,150.51,686.81,129.76,711.79,117.21Z" transform="translate(-28.75 -12.75)"/><path class="cls-15" d="M593.72,120.83c-6,12,10.53,38.55,25.5,39,29.65,0.9,45-100.85,70.5-99,19.24,1.4,18.14,60.08,48,67.5,17,4.22,25.62-12.76,72-30,25.06-9.31,49.77-18.5,58.5-9,11,11.92-3.84,52.6-22.5,55.5-14.8,2.3-23.05-20.57-70.5-70.5-22.72-23.91-34.33-36-46.5-40.5-51.86-19.35-121.2,32.53-117,45,4.6,13.65,95.13-26.37,127.49,12,19.62,23.26,24.65,57.12,7.5,64.5-24.14,10.39-72.83-46.77-130.49-43.5C610.54,112.15,597.59,113,593.72,120.83Z" transform="translate(-28.75 -12.75)"/></svg>