<?xml version="1.0" encoding="utf-8"?>
<!-- Generator: Adobe Illustrator 16.0.3, SVG Export Plug-In . SVG Version: 6.00 Build 0)  -->
<!DOCTYPE svg PUBLIC "-//W3C//DTD SVG 1.1//EN" "http://www.w3.org/Graphics/SVG/1.1/DTD/svg11.dtd">
<svg version="1.1" id="Capa_1" xmlns="http://www.w3.org/2000/svg" xmlns:xlink="http://www.w3.org/1999/xlink" x="0px" y="0px"
	 width="878.956px" height="447.901px" viewBox="0 0 878.956 447.901" enable-background="new 0 0 878.956 447.901"
	 xml:space="preserve">
<g>
	<linearGradient id="SVGID_1_" gradientUnits="userSpaceOnUse" x1="70.6826" y1="216.1782" x2="488.5391" y2="216.1782">
		<stop  offset="0" style="stop-color:#349980"/>
		<stop  offset="1" style="stop-color:#40A629"/>
	</linearGradient>
	<path fill="url(#SVGID_1_)" stroke="#2C1935" stroke-width="1.9431" stroke-miterlimit="10" d="M488.539,342.322
		c0,9.4-7.62,17.021-17.021,17.021H87.703c-9.4,0-17.021-7.621-17.021-17.021V90.033c0-9.4,7.62-17.021,17.021-17.021h383.815
		c9.4,0,17.021,7.62,17.021,17.021V342.322z"/>
	<linearGradient id="SVGID_2_" gradientUnits="userSpaceOnUse" x1="730.7021" y1="59.271" x2="730.7021" y2="377.9434">
		<stop  offset="0" style="stop-color:#4FA0CA"/>
		<stop  offset="1" style="stop-color:#2E58A6"/>
	</linearGradient>
	<rect x="620.916" y="59.271" fill="url(#SVGID_2_)" width="219.572" height="318.672"/>
	<polygon fill="#FFFFFF" stroke="#2C1935" stroke-width="1.9431" stroke-miterlimit="10" points="46.725,394.458 517.931,394.458 
		551.937,428.462 551.937,434.292 14.664,434.292 14.664,428.462 	"/>
	
		<rect x="620.916" y="59.271" fill="none" stroke="#2C1935" stroke-width="1.9431" stroke-miterlimit="10" width="219.572" height="318.672"/>
	<path fill="#2C1935" d="M291.661,182.114c0-5.809,7.414-12.301,7.414-17.423c0-8.545-16.731-14.695-16.731-23.58
		c0-5.809,2.381-7.175,2.381-14.692c0-11.276-9.226-28.702-23.577-28.702c-6.15,0-16.742,4.441-20.501,4.441
		c-3.758,0-7.858-6.833-31.094-6.833c-13.667,0-42.711,14.692-42.711,37.928c0,4.441,3.759,18.109,3.759,22.552
		c0,4.441-16.06,19.817-16.137,25.968c-0.076,6.15,9.303,10.935,8.961,16.06s-9.909,12.984-8.884,20.843
		c1.025,7.859,42.825,15.385,42.825,15.385l38.155,3.749c0,0,46.47-10.934,54.329-13.667c7.858-2.733,12.3-9.226,12.3-24.259
		C302.15,191.339,291.661,187.922,291.661,182.114z"/>
	<path fill="#140B19" d="M184.841,209.201v22.237c5.185,1.257,15.914,2.954,15.914,2.954l20.584-6.441l3.999-36.842l-20.75-0.795
		L184.841,209.201z"/>
	<path fill="#140B19" d="M244.732,215.13l-1.395,12.473l14.395,4.886c1.779-0.433,19.638-4.886,19.638-4.886
		c2.032-27.596-3.282-33.375-3.282-33.375L244.732,215.13z"/>
	<polygon fill="#97E8DC" points="106.088,264.867 116.862,359.343 207.58,359.343 172.088,260.867 	"/>
	<path fill="#FBC9C8" d="M234.155,224.825c-66.614,1.448-97.04,64.237-97.04,102.507c0,12.777,1.414,23.221,3.763,32.012h188.001
		C317.121,304.498,289.233,223.628,234.155,224.825z"/>
	<path fill="#FDA68B" d="M273.107,139.061c-4.101,1.366-12.301,1.366-12.301,1.366c2.05-2.733,2.392-5.809,2.392-5.809
		c-13.668,10.251-22.21,10.251-22.21,10.251c2.051-5.125,0-10.251,0-10.251c-7.175,13.326-17.426,13.668-16.06,10.935
		c1.367-2.733,0-10.935,0-10.935c-6.15,28.02-11.275,37.928-11.275,37.928s-17.426-14.578-17.426,4.101
		c0,12.755,10.022,20.273,13.895,20.046c1.819-0.106,5.467-2.506,5.467-2.506l2.848,6.037l-1.708,33.835l20.16,11.952l9.737-11.952
		v-14.018c25.798,0,33.315-25.969,32.974-42.37C279.258,161.271,273.107,139.061,273.107,139.061z"/>
	<polygon fill="#FFFFFF" points="317.186,324.599 292.273,359.343 344.744,359.343 375.614,329.382 	"/>
	<path fill="#5D9C92" d="M106.088,264.867c-9.994,0.801-11.114,37.092-3.225,94.477h29.025
		C126.241,318.884,116.627,264.025,106.088,264.867z"/>
	<path fill="none" stroke="#A37878" stroke-miterlimit="10" d="M279.61,277.533c0,0,19.839,36.311,19.825,71.822"/>
	
		<ellipse transform="matrix(-0.4163 -0.9092 0.9092 -0.4163 185.131 426.0291)" fill="#2C1935" cx="229.308" cy="153.593" rx="2.833" ry="8.667"/>
	
		<ellipse transform="matrix(0.1789 -0.9839 0.9839 0.1789 74.9355 386.9761)" fill="#2C1935" cx="269.308" cy="148.594" rx="2.833" ry="8.666"/>
	<g>
		
			<circle fill="none" stroke="#231400" stroke-width="1.3668" stroke-linecap="round" stroke-linejoin="round" stroke-miterlimit="10" cx="234.058" cy="167.563" r="14.97"/>
		
			<circle fill="none" stroke="#231400" stroke-width="1.3668" stroke-linecap="round" stroke-linejoin="round" stroke-miterlimit="10" cx="272.058" cy="162.563" r="14.97"/>
		
			<line fill="none" stroke="#231400" stroke-width="1.3668" stroke-linecap="round" stroke-linejoin="round" stroke-miterlimit="10" x1="249.028" y1="163.867" x2="257.088" y2="163.867"/>
		
			<line fill="none" stroke="#231400" stroke-width="1.3668" stroke-linecap="round" stroke-linejoin="round" stroke-miterlimit="10" x1="219.088" y1="168.867" x2="215.238" y2="168.867"/>
	</g>
	
		<ellipse transform="matrix(-0.245 -0.9695 0.9695 -0.245 132.2829 438.2618)" fill="#2C1935" cx="236.777" cy="167.627" rx="5.715" ry="2.646"/>
	
		<ellipse transform="matrix(0.0749 -0.9972 0.9972 0.0749 84.5459 418.3917)" fill="#2C1935" cx="267.777" cy="163.627" rx="5.715" ry="2.646"/>
	<path fill="none" stroke="#DA806A" stroke-width="2.5813" stroke-linecap="round" stroke-miterlimit="10" d="M236.547,192.451
		c0,0,10.791,4,29.791,0"/>
	<path fill="none" stroke="#DA806A" stroke-width="2.5813" stroke-linecap="round" stroke-miterlimit="10" d="M253.058,169.33
		c0,0,10.28,8.621,9.28,10.371s-7.25,2.833-7.25,2.833"/>
	<path fill="#DA806A" d="M223.838,205.451c0,0-0.924,13.473,22.788,19.361v-4.771C246.626,220.042,233.838,218.951,223.838,205.451z
		"/>
	<path fill="none" stroke="#DA806A" stroke-width="2.5813" stroke-linecap="round" stroke-miterlimit="10" d="M200.755,177.534
		c0,0,0.666-12.204,10-1.603"/>
	<path fill="none" stroke="#DA806A" stroke-width="2.5813" stroke-linecap="round" stroke-miterlimit="10" d="M203.088,184.867
		c0,0,6.345,8.896,9.173,5.447"/>
	<path fill="none" stroke="#DA806A" stroke-width="2.5813" stroke-linecap="round" stroke-miterlimit="10" d="M205.755,177.534
		c0,0,5.666,4.333,5,7.333"/>
	<g>
		<path fill="#CEDAF2" d="M731.19,312.542l-38.056,65.4h86.922C774.034,349.662,731.19,312.542,731.19,312.542z"/>
		<path fill="#FDA68B" d="M740.437,226.326c-2.941-4.801-4.979-22.164-4.979-22.164l4.645-37.496l-47.564-24.588l-45.342,6.447
			c-6.533,14.229,3.101,27.922,3.101,27.922s-9.583,22.155-10.636,26.332c-1.369,5.428,13.342,6.564,13.342,6.564
			c-1.511,2.979-1.444,12.008-0.372,14.215c1.071,2.205,4.26,3.76,4.987,6.553c0.729,2.793,0.144,9.705,5.348,12.127
			s21.451-1.611,21.451-1.611l4.852,18.617l-10.505,18.443l3.177,2.652l64.992-20.314l9.872-18.578
			C744.534,237.089,743.377,231.126,740.437,226.326z"/>
		<path fill="#2C1935" d="M736.379,104.31c0.28-2.36,10.31-5.072,10.31-5.072c-8.936-4.532-17.104-2.305-17.104-2.305
			c2.158-15.375-11.188-17.762-11.188-17.762c7.864,9.582-2.802,16.338-2.802,16.338c-38.85-11.748-57.71,18.119-57.71,18.119
			l-9.891-2.094c-1.243,1.715,4.396,10.385,4.396,10.385c-1.855,3.566-14.169-0.582-14.169-0.582
			c-3.952,6.199,8.325,13.637,8.325,13.637c-3.041,3.975-13.34,0.693-13.34,0.693s0.929,11.19,20.92,15.425
			c19.991,4.235,36.842-4.729,36.842-4.729s1.853,7.868,1.325,13.474c-0.528,5.605,5.724,12.426,7.337,15.187
			c1.614,2.761,2.727,8.934,4.836,12.459c2.113,3.526,3.521,2.065,3.922-7.086c0.397-9.15,10.605-12.705,17.13-11.323
			c6.523,1.383,8.095,11.609,7.191,16.915c-0.904,5.306-8.58,12.476-8.58,12.476c5.749,10.232,19.097,12.621,31.513-29.386
			S736.379,104.31,736.379,104.31z"/>
		<path fill="#2C1935" d="M662.484,165.617c-5.544-0.773-9.361-0.443-11.39-0.213c-2.027,0.229-1.797,2.257-0.68,4.252
			c1.115,1.996,8.397-0.199,13.869,0.959c5.471,1.16,13.124,3.44,14.213,0.373C679.073,169.367,674.657,167.316,662.484,165.617z"/>
		<path fill="#2C1935" d="M663.833,176.896c-3.998-0.847-7.326,2.064-6.363,3.051c1.085,1.108,3.469-0.805,6.97-0.723
			c3.501,0.081,6.365,4.207,7.474,3.121C673.022,181.261,667.831,177.744,663.833,176.896z"/>
		
			<ellipse transform="matrix(-0.1526 -0.9883 0.9883 -0.1526 583.3103 866.3576)" fill="#2C1935" cx="663.067" cy="183.111" rx="5.377" ry="2.473"/>
		<path fill="#DA806A" d="M655.003,204.05c-2.493,0.352-15.343-1.271-15.343-1.271s-0.426,4.088,6.098,5.47
			c6.522,1.382,11.485,2.874,12.109-0.073C658.491,205.23,657.495,203.699,655.003,204.05z"/>
		<path fill="#DA806A" d="M661.304,214.139c-1.345,0.525,0.505,3.935,0.505,3.935c-4.471,4.948-9.788,2.717-9.788,2.717
			c-0.17,2.896,2.464,5.07,2.464,5.07l0.538,0.527c5.311-0.422,8.938-4.92,8.938-4.92c2.955,1.221,3.281-1.385,1.463-4.188
			C663.605,214.48,662.648,213.615,661.304,214.139z"/>
		<path fill="none" stroke="#DA806A" stroke-width="2.5813" stroke-linecap="round" stroke-miterlimit="10" d="M715.51,199.716
			c0,0,3.222-4.988,5.992-7.526c2.728-2.5-2.61-4.29-4.172-4.182c-1.563,0.109-2.986-4.59-1.686-7.612
			c1.3-3.023,3.046-8.15,7.63-6.96c4.587,1.191,3.714,7.383,3.714,7.383"/>
		<path fill="#DA806A" d="M724.13,198.464c0,0-2.906,3.342-3.129,4.395c-0.224,1.053-2.301,5.67-3.608,5.612
			s-1.924,5.97-4.849,14.585c-2.924,8.615-28.128,17.57-28.128,17.57l1.851,7.867c6.944,1.471,20.481-5.336,27.347-11.799
			c6.865-6.461,8.73-18.379,11.86-22.773s10.993-2.069,10.993-2.069c0.058-1.308-1.01-7.69-1.01-7.69L724.13,198.464z"/>
		<path fill="#E9EFFD" d="M756.804,241.447c-19.491,29.734-78.041,36.24-78.041,36.24c-15.383,10.512-23.043,56.93-26.72,100.256
			h94.542l-10.736-52.102l24.353,52.102h71.327C820.436,264.201,756.804,241.447,756.804,241.447z"/>
	</g>
	<path fill="none" stroke="#A37878" stroke-miterlimit="10" d="M186.755,288.867c0,0-8.667,18.668-6.667,42
		c1,11.668,6.5,20.834,13.667,27.5"/>
	<path fill="#FFFFFF" stroke="#2C1935" stroke-width="1.9431" stroke-miterlimit="10" d="M498.5,41.783H60.327
		c-10.73,0-19.432,8.699-19.432,19.431v307.984c0,10.73,8.701,19.43,19.432,19.43H498.5c10.73,0,19.431-8.699,19.431-19.43V61.214
		C517.931,50.482,509.23,41.783,498.5,41.783z M488.342,342.322c0,9.4-7.62,17.021-17.021,17.021H87.506
		c-9.4,0-17.021-7.621-17.021-17.021V90.033c0-9.4,7.62-17.021,17.021-17.021h383.815c9.4,0,17.021,7.62,17.021,17.021V342.322z"/>
	<path fill="#FFFFFF" stroke="#2C1935" stroke-width="1.9431" stroke-miterlimit="10" d="M844.86,13.608H616.545
		c-10.731,0-19.433,8.699-19.433,19.431v381.822c0,10.732,8.701,19.432,19.433,19.432H844.86c10.73,0,19.432-8.699,19.432-19.432
		V33.039C864.292,22.307,855.591,13.608,844.86,13.608z M840.488,377.943H620.916V59.271h219.572V377.943z"/>
	<path fill="#2C1935" stroke="#2C1935" stroke-width="1.9431" stroke-miterlimit="10" d="M754.506,404.417
		c0,5.5-4.459,9.959-9.959,9.959h-27.689c-5.499,0-9.959-4.459-9.959-9.959l0,0c0-5.5,4.46-9.959,9.959-9.959h27.689
		C750.047,394.458,754.506,398.917,754.506,404.417L754.506,404.417z"/>
</g>
</svg>
